<?xml version="1.0" encoding="UTF-8"?>
<!DOCTYPE svg PUBLIC "-//W3C//DTD SVG 1.1//EN" "http://www.w3.org/Graphics/SVG/1.1/DTD/svg11.dtd">
<svg xmlns="http://www.w3.org/2000/svg" version="1.1" width="32px" height="28px" style="shape-rendering:geometricPrecision; text-rendering:geometricPrecision; image-rendering:optimizeQuality; fill-rule:evenodd; clip-rule:evenodd" xmlns:xlink="http://www.w3.org/1999/xlink">
<g><path style="opacity:1" fill="#fcfcfa" d="M -0.5,-0.5 C 2.16667,-0.5 4.83333,-0.5 7.5,-0.5C 7.5,0.5 7.5,1.5 7.5,2.5C 7.5,5.5 7.5,8.5 7.5,11.5C 7.5,13.8333 7.5,16.1667 7.5,18.5C 6.59748,21.3915 6.26414,24.3915 6.5,27.5C 4.16667,27.5 1.83333,27.5 -0.5,27.5C -0.5,18.1667 -0.5,8.83333 -0.5,-0.5 Z"/></g>
<g><path style="opacity:1" fill="#fafcfa" d="M 7.5,-0.5 C 15.5,-0.5 23.5,-0.5 31.5,-0.5C 31.5,4.16667 31.5,8.83333 31.5,13.5C 30.8333,13.5 30.1667,13.5 29.5,13.5C 29.1667,13.5 28.8333,13.5 28.5,13.5C 27.205,12.5116 25.8717,11.5116 24.5,10.5C 20.9296,7.98122 17.263,5.64789 13.5,3.5C 11.9007,1.27117 9.90073,0.937838 7.5,2.5C 7.5,1.5 7.5,0.5 7.5,-0.5 Z"/></g>
<g><path style="opacity:1" fill="#9dafc4" d="M 13.5,3.5 C 13.4431,4.60895 13.1098,5.60895 12.5,6.5C 11.713,8.10422 10.3797,8.77089 8.5,8.5C 8.73731,9.79105 8.40397,10.791 7.5,11.5C 7.5,8.5 7.5,5.5 7.5,2.5C 9.90073,0.937838 11.9007,1.27117 13.5,3.5 Z"/></g>
<g><path style="opacity:1" fill="#c6d3c6" d="M 13.5,3.5 C 17.263,5.64789 20.9296,7.98122 24.5,10.5C 21.6755,10.9193 19.5088,9.91927 18,7.5C 17.0494,7.88361 16.2161,8.21694 15.5,8.5C 14.7777,7.44886 13.7777,6.78219 12.5,6.5C 13.1098,5.60895 13.4431,4.60895 13.5,3.5 Z"/></g>
<g><path style="opacity:1" fill="#a7b29b" d="M 24.5,10.5 C 25.8717,11.5116 27.205,12.5116 28.5,13.5C 27.209,13.2627 26.209,13.596 25.5,14.5C 23.0712,14.415 21.0712,13.415 19.5,11.5C 19.1667,11.6667 18.8333,11.8333 18.5,12C 19.3805,12.7083 20.0472,13.5416 20.5,14.5C 20.5,14.8333 20.5,15.1667 20.5,15.5C 19.2058,14.7101 18.0391,13.7101 17,12.5C 16.6174,13.056 16.1174,13.3893 15.5,13.5C 15.5,12.1667 15.5,10.8333 15.5,9.5C 15.5,9.16667 15.5,8.83333 15.5,8.5C 16.2161,8.21694 17.0494,7.88361 18,7.5C 19.5088,9.91927 21.6755,10.9193 24.5,10.5 Z"/></g>
<g><path style="opacity:1" fill="#faf8f5" d="M 15.5,9.5 C 15.5,10.8333 15.5,12.1667 15.5,13.5C 14.609,14.1098 13.609,14.4431 12.5,14.5C 12.3379,12.4727 12.5045,10.4727 13,8.5C 13.6708,9.25244 14.5041,9.58577 15.5,9.5 Z"/></g>
<g><path style="opacity:1" fill="#85857d" d="M 12.5,6.5 C 13.7777,6.78219 14.7777,7.44886 15.5,8.5C 15.5,8.83333 15.5,9.16667 15.5,9.5C 14.5041,9.58577 13.6708,9.25244 13,8.5C 12.5045,10.4727 12.3379,12.4727 12.5,14.5C 11.4324,15.4345 10.099,15.7678 8.5,15.5C 8.73731,16.791 8.40397,17.791 7.5,18.5C 7.5,16.1667 7.5,13.8333 7.5,11.5C 8.40397,10.791 8.73731,9.79105 8.5,8.5C 10.3797,8.77089 11.713,8.10422 12.5,6.5 Z"/></g>
<g><path style="opacity:1" fill="#68705e" d="M 25.5,14.5 C 25.5,15.1667 25.5,15.8333 25.5,16.5C 23.7162,16.1075 22.0495,15.4408 20.5,14.5C 20.0472,13.5416 19.3805,12.7083 18.5,12C 18.8333,11.8333 19.1667,11.6667 19.5,11.5C 21.0712,13.415 23.0712,14.415 25.5,14.5 Z"/></g>
<g><path style="opacity:1" fill="#93a166" d="M 28.5,13.5 C 28.8333,13.5 29.1667,13.5 29.5,13.5C 28.6993,15.0418 28.366,16.7085 28.5,18.5C 27.2223,18.2178 26.2223,17.5511 25.5,16.5C 25.5,15.8333 25.5,15.1667 25.5,14.5C 26.209,13.596 27.209,13.2627 28.5,13.5 Z"/></g>
<g><path style="opacity:1" fill="#faf9f6" d="M 20.5,14.5 C 22.0495,15.4408 23.7162,16.1075 25.5,16.5C 26.2223,17.5511 27.2223,18.2178 28.5,18.5C 29.5,18.5 30.5,18.5 31.5,18.5C 31.5,21.5 31.5,24.5 31.5,27.5C 25.1667,27.5 18.8333,27.5 12.5,27.5C 12.6896,25.3581 12.8563,23.0248 13,20.5C 15.4795,18.6859 17.9795,17.0192 20.5,15.5C 20.5,15.1667 20.5,14.8333 20.5,14.5 Z"/></g>
<g><path style="opacity:1" fill="#9c856b" d="M 20.5,15.5 C 17.9795,17.0192 15.4795,18.6859 13,20.5C 12.8563,23.0248 12.6896,25.3581 12.5,27.5C 12.1667,27.5 11.8333,27.5 11.5,27.5C 11.7229,24.8858 10.5562,23.2191 8,22.5C 7.50649,24.1341 7.33982,25.8008 7.5,27.5C 7.16667,27.5 6.83333,27.5 6.5,27.5C 6.26414,24.3915 6.59748,21.3915 7.5,18.5C 8.40397,17.791 8.73731,16.791 8.5,15.5C 10.099,15.7678 11.4324,15.4345 12.5,14.5C 13.609,14.4431 14.609,14.1098 15.5,13.5C 16.1174,13.3893 16.6174,13.056 17,12.5C 18.0391,13.7101 19.2058,14.7101 20.5,15.5 Z"/></g>
<g><path style="opacity:1" fill="#d2e37f" d="M 29.5,13.5 C 30.1667,13.5 30.8333,13.5 31.5,13.5C 31.5,15.1667 31.5,16.8333 31.5,18.5C 30.5,18.5 29.5,18.5 28.5,18.5C 28.366,16.7085 28.6993,15.0418 29.5,13.5 Z"/></g>
<g><path style="opacity:1" fill="#b36445" d="M 11.5,27.5 C 10.1667,27.5 8.83333,27.5 7.5,27.5C 7.33982,25.8008 7.50649,24.1341 8,22.5C 10.5562,23.2191 11.7229,24.8858 11.5,27.5 Z"/></g>
</svg>
