<?xml version="1.0" encoding="UTF-8"?>
<!DOCTYPE svg PUBLIC "-//W3C//DTD SVG 1.1//EN" "http://www.w3.org/Graphics/SVG/1.1/DTD/svg11.dtd">
<svg xmlns="http://www.w3.org/2000/svg" version="1.1" width="32px" height="28px" style="shape-rendering:geometricPrecision; text-rendering:geometricPrecision; image-rendering:optimizeQuality; fill-rule:evenodd; clip-rule:evenodd" xmlns:xlink="http://www.w3.org/1999/xlink">
<g><path style="opacity:1" fill="#f2f9fc" d="M 7.5,-0.5 C 9.5,-0.5 11.5,-0.5 13.5,-0.5C 13.7329,1.06181 14.3995,2.39514 15.5,3.5C 14.391,3.44312 13.391,3.10978 12.5,2.5C 11.4324,1.56552 10.099,1.23219 8.5,1.5C 7.83333,1.5 7.16667,1.5 6.5,1.5C 6.83333,0.833333 7.16667,0.166667 7.5,-0.5 Z"/></g>
<g><path style="opacity:0.345" fill="#eaf4f6" d="M 6.5,1.5 C 7.16667,1.5 7.83333,1.5 8.5,1.5C 8.16667,2.16667 7.83333,2.83333 7.5,3.5C 7.16667,3.5 6.83333,3.5 6.5,3.5C 5.16667,2.83333 5.16667,2.16667 6.5,1.5 Z"/></g>
<g><path style="opacity:1" fill="#a6bacb" d="M 8.5,1.5 C 10.099,1.23219 11.4324,1.56552 12.5,2.5C 12.1667,2.5 11.8333,2.5 11.5,2.5C 10.1667,2.5 9.5,3.16667 9.5,4.5C 8.83333,4.5 8.5,4.83333 8.5,5.5C 7.66175,5.15829 7.32842,4.49162 7.5,3.5C 7.83333,2.83333 8.16667,2.16667 8.5,1.5 Z"/></g>
<g><path style="opacity:1" fill="#acc3e3" d="M 11.5,2.5 C 11.719,3.67504 11.3857,4.67504 10.5,5.5C 9.89333,5.37642 9.55999,5.04309 9.5,4.5C 9.5,3.16667 10.1667,2.5 11.5,2.5 Z"/></g>
<g><path style="opacity:1" fill="#edf9fb" d="M 6.5,3.5 C 6.83333,3.5 7.16667,3.5 7.5,3.5C 7.32842,4.49162 7.66175,5.15829 8.5,5.5C 8.5,5.83333 8.5,6.16667 8.5,6.5C 7.83333,6.5 7.5,6.83333 7.5,7.5C 7.16667,7.5 6.83333,7.5 6.5,7.5C 6.5,6.16667 6.5,4.83333 6.5,3.5 Z"/></g>
<g><path style="opacity:1" fill="#778ca7" d="M 11.5,2.5 C 11.8333,2.5 12.1667,2.5 12.5,2.5C 12.5,3.83333 12.5,5.16667 12.5,6.5C 12.1667,6.5 11.8333,6.5 11.5,6.5C 11.1667,6.5 10.8333,6.5 10.5,6.5C 9.83333,6.5 9.16667,6.5 8.5,6.5C 8.5,6.16667 8.5,5.83333 8.5,5.5C 8.5,4.83333 8.83333,4.5 9.5,4.5C 9.55999,5.04309 9.89333,5.37642 10.5,5.5C 11.3857,4.67504 11.719,3.67504 11.5,2.5 Z"/></g>
<g><path style="opacity:1" fill="#b9ccd9" d="M 12.5,2.5 C 13.391,3.10978 14.391,3.44312 15.5,3.5C 15.5,4.16667 15.5,4.83333 15.5,5.5C 14.8333,5.5 14.5,5.83333 14.5,6.5C 13.8333,6.5 13.1667,6.5 12.5,6.5C 12.5,5.16667 12.5,3.83333 12.5,2.5 Z"/></g>
<g><path style="opacity:1" fill="#cad8d0" d="M 15.5,5.5 C 16.791,5.26269 17.791,5.59603 18.5,6.5C 16.8212,6.28519 15.8212,6.95186 15.5,8.5C 14.6618,8.15829 14.3284,7.49162 14.5,6.5C 14.5,5.83333 14.8333,5.5 15.5,5.5 Z"/></g>
<g><path style="opacity:0.941" fill="#b3c2b3" d="M 18.5,6.5 C 18.5,6.83333 18.5,7.16667 18.5,7.5C 17.5,7.83333 16.8333,8.5 16.5,9.5C 16.1667,9.5 15.8333,9.5 15.5,9.5C 15.5,9.16667 15.5,8.83333 15.5,8.5C 15.8212,6.95186 16.8212,6.28519 18.5,6.5 Z"/></g>
<g><path style="opacity:1" fill="#939d9f" d="M 11.5,6.5 C 11.8333,6.5 12.1667,6.5 12.5,6.5C 13.1667,6.5 13.8333,6.5 14.5,6.5C 14.3284,7.49162 14.6618,8.15829 15.5,8.5C 15.5,8.83333 15.5,9.16667 15.5,9.5C 14.2022,8.88432 13.2022,8.88432 12.5,9.5C 12.1667,9.5 11.8333,9.5 11.5,9.5C 11.5,8.5 11.5,7.5 11.5,6.5 Z"/></g>
<g><path style="opacity:0.125" fill="#ccd8c8" d="M 18.5,6.5 C 20.1667,7.5 21.5,8.83333 22.5,10.5C 21.8333,10.5 21.1667,10.5 20.5,10.5C 20.5,9.83333 20.1667,9.5 19.5,9.5C 19.1667,8.83333 18.8333,8.16667 18.5,7.5C 18.5,7.16667 18.5,6.83333 18.5,6.5 Z"/></g>
<g><path style="opacity:1" fill="#a4adb3" d="M 8.5,6.5 C 9.16667,6.5 9.83333,6.5 10.5,6.5C 10.1898,8.14363 9.18982,9.14363 7.5,9.5C 7.5,8.83333 7.5,8.16667 7.5,7.5C 7.5,6.83333 7.83333,6.5 8.5,6.5 Z"/></g>
<g><path style="opacity:1" fill="#7a8182" d="M 10.5,6.5 C 10.8333,6.5 11.1667,6.5 11.5,6.5C 11.5,7.5 11.5,8.5 11.5,9.5C 9.5,9.5 8.5,10.5 8.5,12.5C 8.16667,12.5 7.83333,12.5 7.5,12.5C 7.5,11.5 7.5,10.5 7.5,9.5C 9.18982,9.14363 10.1898,8.14363 10.5,6.5 Z"/></g>
<g><path style="opacity:1" fill="#aab8a5" d="M 18.5,7.5 C 18.8333,8.16667 19.1667,8.83333 19.5,9.5C 18.6522,10.625 17.6522,10.625 16.5,9.5C 16.8333,8.5 17.5,7.83333 18.5,7.5 Z"/></g>
<g><path style="opacity:1" fill="#6b6f6b" d="M 11.5,9.5 C 11.7678,11.099 11.4345,12.4324 10.5,13.5C 10.5912,11.3023 9.92454,10.9689 8.5,12.5C 8.5,10.5 9.5,9.5 11.5,9.5 Z"/></g>
<g><path style="opacity:1" fill="#939d8b" d="M 15.5,10.5 C 15.5,10.1667 15.5,9.83333 15.5,9.5C 15.8333,9.5 16.1667,9.5 16.5,9.5C 17.6522,10.625 18.6522,10.625 19.5,9.5C 20.1667,9.5 20.5,9.83333 20.5,10.5C 20.5,10.8333 20.5,11.1667 20.5,11.5C 19.8333,11.5 19.1667,11.5 18.5,11.5C 17.391,11.4431 16.391,11.1098 15.5,10.5 Z"/></g>
<g><path style="opacity:1" fill="#f7f6f1" d="M 6.5,7.5 C 6.83333,7.5 7.16667,7.5 7.5,7.5C 7.5,8.16667 7.5,8.83333 7.5,9.5C 7.5,10.5 7.5,11.5 7.5,12.5C 7.5,12.8333 7.5,13.1667 7.5,13.5C 7.5,15.1667 7.5,16.8333 7.5,18.5C 6.59748,21.3915 6.26414,24.3915 6.5,27.5C 6.16667,27.5 5.83333,27.5 5.5,27.5C 5.63176,20.6531 5.96509,13.9864 6.5,7.5 Z"/></g>
<g><path style="opacity:0.612" fill="#fcf9f1" d="M 12.5,11.5 C 12.8333,11.5 13.1667,11.5 13.5,11.5C 13.5,12.1667 13.8333,12.5 14.5,12.5C 14.8333,12.5 15.1667,12.5 15.5,12.5C 15.5,12.8333 15.5,13.1667 15.5,13.5C 14.609,14.1098 13.609,14.4431 12.5,14.5C 12.5,13.5 12.5,12.5 12.5,11.5 Z"/></g>
<g><path style="opacity:0.816" fill="#f8f9f5" d="M 15.5,9.5 C 15.5,9.83333 15.5,10.1667 15.5,10.5C 15.5,11.1667 15.5,11.8333 15.5,12.5C 15.1667,12.5 14.8333,12.5 14.5,12.5C 14.5393,10.7761 14.206,10.4427 13.5,11.5C 13.1667,11.5 12.8333,11.5 12.5,11.5C 12.5,10.8333 12.5,10.1667 12.5,9.5C 13.2022,8.88432 14.2022,8.88432 15.5,9.5 Z"/></g>
<g><path style="opacity:1" fill="#75766c" d="M 10.5,13.5 C 9.83333,13.8333 9.16667,14.1667 8.5,14.5C 8.5,13.8333 8.16667,13.5 7.5,13.5C 7.5,13.1667 7.5,12.8333 7.5,12.5C 7.83333,12.5 8.16667,12.5 8.5,12.5C 9.92454,10.9689 10.5912,11.3023 10.5,13.5 Z"/></g>
<g><path style="opacity:0.969" fill="#c6c7bd" d="M 15.5,10.5 C 16.391,11.1098 17.391,11.4431 18.5,11.5C 19.1667,12.5 19.8333,13.5 20.5,14.5C 20.5,14.8333 20.5,15.1667 20.5,15.5C 20.1667,15.5 19.8333,15.5 19.5,15.5C 18.7582,13.6503 17.7582,12.9836 16.5,13.5C 16.1667,13.5 15.8333,13.5 15.5,13.5C 15.5,13.1667 15.5,12.8333 15.5,12.5C 15.5,11.8333 15.5,11.1667 15.5,10.5 Z"/></g>
<g><path style="opacity:1" fill="#676d5c" d="M 18.5,11.5 C 19.1667,11.5 19.8333,11.5 20.5,11.5C 21.4006,13.7271 23.0672,14.7271 25.5,14.5C 25.6716,15.4916 25.3382,16.1583 24.5,16.5C 23.1667,15.8333 21.8333,15.1667 20.5,14.5C 19.8333,13.5 19.1667,12.5 18.5,11.5 Z"/></g>
<g><path style="opacity:0.765" fill="#a5b194" d="M 20.5,10.5 C 21.1667,10.5 21.8333,10.5 22.5,10.5C 23.5,11.1667 24.5,11.8333 25.5,12.5C 25.5,13.1667 25.5,13.8333 25.5,14.5C 23.0672,14.7271 21.4006,13.7271 20.5,11.5C 20.5,11.1667 20.5,10.8333 20.5,10.5 Z"/></g>
<g><path style="opacity:1" fill="#858175" d="M 11.5,9.5 C 11.8333,9.5 12.1667,9.5 12.5,9.5C 12.5,10.1667 12.5,10.8333 12.5,11.5C 12.5,12.5 12.5,13.5 12.5,14.5C 12.5,14.8333 12.5,15.1667 12.5,15.5C 10.901,15.7678 9.56764,15.4345 8.5,14.5C 9.16667,14.1667 9.83333,13.8333 10.5,13.5C 11.4345,12.4324 11.7678,11.099 11.5,9.5 Z"/></g>
<g><path style="opacity:1" fill="#8d897b" d="M 19.5,15.5 C 18.391,15.5569 17.391,15.8902 16.5,16.5C 16.5,15.5 16.5,14.5 16.5,13.5C 17.7582,12.9836 18.7582,13.6503 19.5,15.5 Z"/></g>
<g><path style="opacity:0.776" fill="#9aa673" d="M 25.5,12.5 C 26.391,13.1098 27.391,13.4431 28.5,13.5C 28.5,14.1667 28.5,14.8333 28.5,15.5C 28.3284,16.4916 28.6618,17.1583 29.5,17.5C 29.1959,19.7957 28.1959,20.129 26.5,18.5C 25.8333,17.8333 25.1667,17.1667 24.5,16.5C 25.3382,16.1583 25.6716,15.4916 25.5,14.5C 25.5,13.8333 25.5,13.1667 25.5,12.5 Z"/></g>
<g><path style="opacity:0.373" fill="#dae69e" d="M 31.5,12.5 C 31.5,13.1667 31.5,13.8333 31.5,14.5C 30.391,14.5569 29.391,14.8902 28.5,15.5C 28.5,14.8333 28.5,14.1667 28.5,13.5C 29.609,13.4431 30.609,13.1098 31.5,12.5 Z"/></g>
<g><path style="opacity:0.918" fill="#f5f7f1" d="M 20.5,14.5 C 21.8333,15.1667 23.1667,15.8333 24.5,16.5C 25.1667,17.1667 25.8333,17.8333 26.5,18.5C 24.6096,18.7035 23.1096,18.0368 22,16.5C 21.6174,17.056 21.1174,17.3893 20.5,17.5C 20.5,17.1667 20.5,16.8333 20.5,16.5C 20.5,16.1667 20.5,15.8333 20.5,15.5C 20.5,15.1667 20.5,14.8333 20.5,14.5 Z"/></g>
<g><path style="opacity:0.361" fill="#d7e87f" d="M 31.5,14.5 C 31.5,15.1667 31.5,15.8333 31.5,16.5C 30.5084,16.3284 29.8417,16.6618 29.5,17.5C 28.6618,17.1583 28.3284,16.4916 28.5,15.5C 29.391,14.8902 30.391,14.5569 31.5,14.5 Z"/></g>
<g><path style="opacity:1" fill="#9b8973" d="M 7.5,13.5 C 8.16667,13.5 8.5,13.8333 8.5,14.5C 9.56764,15.4345 10.901,15.7678 12.5,15.5C 13.5,15.8333 14.1667,16.5 14.5,17.5C 14.5,17.8333 14.5,18.1667 14.5,18.5C 14.1667,19.5 13.5,20.1667 12.5,20.5C 12.5,20.1667 12.5,19.8333 12.5,19.5C 12.5,18.5 12.5,17.5 12.5,16.5C 10.8212,16.2852 9.82124,16.9519 9.5,18.5C 8.83333,18.5 8.16667,18.5 7.5,18.5C 7.5,16.8333 7.5,15.1667 7.5,13.5 Z"/></g>
<g><path style="opacity:1" fill="#a38b6b" d="M 12.5,19.5 C 12.1667,19.5 11.8333,19.5 11.5,19.5C 10.5084,19.6716 9.84171,19.3382 9.5,18.5C 9.82124,16.9519 10.8212,16.2852 12.5,16.5C 12.5,17.5 12.5,18.5 12.5,19.5 Z"/></g>
<g><path style="opacity:1" fill="#a09581" d="M 15.5,13.5 C 15.8333,13.5 16.1667,13.5 16.5,13.5C 16.5,14.5 16.5,15.5 16.5,16.5C 15.8333,16.8333 15.1667,17.1667 14.5,17.5C 14.1667,16.5 13.5,15.8333 12.5,15.5C 12.5,15.1667 12.5,14.8333 12.5,14.5C 13.609,14.4431 14.609,14.1098 15.5,13.5 Z"/></g>
<g><path style="opacity:1" fill="#767061" d="M 19.5,15.5 C 19.8333,15.5 20.1667,15.5 20.5,15.5C 20.5,15.8333 20.5,16.1667 20.5,16.5C 18.7162,16.8925 17.0495,17.5592 15.5,18.5C 15.1667,18.5 14.8333,18.5 14.5,18.5C 14.5,18.1667 14.5,17.8333 14.5,17.5C 15.1667,17.1667 15.8333,16.8333 16.5,16.5C 17.391,15.8902 18.391,15.5569 19.5,15.5 Z"/></g>
<g><path style="opacity:0.757" fill="#f7f3ed" d="M 20.5,16.5 C 20.5,16.8333 20.5,17.1667 20.5,17.5C 19.0351,18.7368 17.3684,19.7368 15.5,20.5C 15.5,19.8333 15.5,19.1667 15.5,18.5C 17.0495,17.5592 18.7162,16.8925 20.5,16.5 Z"/></g>
<g><path style="opacity:0.745" fill="#f1e7dc" d="M 14.5,18.5 C 14.8333,18.5 15.1667,18.5 15.5,18.5C 15.5,19.1667 15.5,19.8333 15.5,20.5C 14.0687,21.7804 13.4021,23.4471 13.5,25.5C 12.5489,24.0813 12.2155,22.4147 12.5,20.5C 13.5,20.1667 14.1667,19.5 14.5,18.5 Z"/></g>
<g><path style="opacity:1" fill="#ac8a71" d="M 7.5,18.5 C 8.16667,18.5 8.83333,18.5 9.5,18.5C 9.84171,19.3382 10.5084,19.6716 11.5,19.5C 11.5,20.1667 11.5,20.8333 11.5,21.5C 9.80407,19.871 8.80407,20.2043 8.5,22.5C 7.54885,23.9187 7.21552,25.5853 7.5,27.5C 7.16667,27.5 6.83333,27.5 6.5,27.5C 6.26414,24.3915 6.59748,21.3915 7.5,18.5 Z"/></g>
<g><path style="opacity:1" fill="#af815e" d="M 11.5,21.5 C 11.5,22.5 11.5,23.5 11.5,24.5C 10.2905,24.0679 9.29049,23.4013 8.5,22.5C 8.80407,20.2043 9.80407,19.871 11.5,21.5 Z"/></g>
<g><path style="opacity:1" fill="#b1684b" d="M 8.5,22.5 C 9.29049,23.4013 10.2905,24.0679 11.5,24.5C 11.5,25.5 11.5,26.5 11.5,27.5C 10.1667,27.5 8.83333,27.5 7.5,27.5C 7.21552,25.5853 7.54885,23.9187 8.5,22.5 Z"/></g>
<g><path style="opacity:1" fill="#916859" d="M 11.5,19.5 C 11.8333,19.5 12.1667,19.5 12.5,19.5C 12.5,19.8333 12.5,20.1667 12.5,20.5C 12.2155,22.4147 12.5489,24.0813 13.5,25.5C 13.5,26.1667 13.5,26.8333 13.5,27.5C 12.8333,27.5 12.1667,27.5 11.5,27.5C 11.5,26.5 11.5,25.5 11.5,24.5C 11.5,23.5 11.5,22.5 11.5,21.5C 11.5,20.8333 11.5,20.1667 11.5,19.5 Z"/></g>
</svg>
