<?xml version="1.0" standalone="no"?>
<!DOCTYPE svg PUBLIC "-//W3C//DTD SVG 20010904//EN"
 "http://www.w3.org/TR/2001/REC-SVG-20010904/DTD/svg10.dtd">
<svg version="1.0" xmlns="http://www.w3.org/2000/svg"
 width="32.000000pt" height="32.000000pt" viewBox="0 0 32.000000 32.000000"
 preserveAspectRatio="xMidYMid meet">

<g transform="translate(0.000000,32.000000) scale(0.100000,-0.100000)"
fill="#000000" stroke="none">
<path d="M40 165 c0 -69 4 -125 8 -125 4 0 23 16 42 35 29 30 40 35 82 35 26
0 48 3 48 8 0 10 -163 172 -173 172 -4 0 -7 -56 -7 -125z m55 60 c19 -31 42
-58 50 -61 27 -11 16 -24 -20 -24 -22 0 -37 -6 -44 -17 -5 -10 -12 -15 -15
-12 -9 8 -20 169 -13 169 4 0 22 -25 42 -55z"/>
</g>
</svg>
